<svg width="14" height="16" viewBox="0 0 14 16" fill="none" xmlns="http://www.w3.org/2000/svg">
<path fill-rule="evenodd" clip-rule="evenodd" d="M2.30204 0.785875C3.54182 0.289965 5.20312 0 7 0C8.79688 0 10.4582 0.289965 11.698 0.785875C12.3158 1.033 12.8661 1.34602 13.2742 1.73197C13.6839 2.11942 14 2.63215 14 3.25V8V12.75C14 13.3679 13.6839 13.8806 13.2742 14.268C12.8661 14.654 12.3158 14.967 11.698 15.2141C10.4582 15.71 8.79688 16 7 16C5.20312 16 3.54182 15.71 2.30204 15.2141C1.68423 14.967 1.13394 14.654 0.72583 14.268C0.31613 13.8806 0 13.3679 0 12.75V8V3.25C0 2.63215 0.31613 2.11942 0.72583 1.73197C1.13394 1.34602 1.68423 1.033 2.30204 0.785875ZM1.5 5.33081V8C1.5 8.0725 1.53365 8.21745 1.75649 8.4282C1.98091 8.64044 2.34591 8.86612 2.85913 9.07141C3.8814 9.48032 5.3451 9.75 7 9.75C8.6549 9.75 10.1186 9.48032 11.1409 9.07141C11.6541 8.86612 12.0191 8.64044 12.2435 8.4282C12.4664 8.21745 12.5 8.0725 12.5 8V5.33081C12.2518 5.47297 11.982 5.60051 11.698 5.71412C10.4582 6.21004 8.79688 6.5 7 6.5C5.20312 6.5 3.54182 6.21004 2.30204 5.71412C2.018 5.60051 1.74824 5.47297 1.5 5.33081ZM12.5 3.25C12.5 3.3225 12.4664 3.46746 12.2435 3.6782C12.0191 3.89044 11.6541 4.11612 11.1409 4.32141C10.1186 4.73032 8.6549 5 7 5C5.3451 5 3.8814 4.73032 2.85913 4.32141C2.34591 4.11612 1.98091 3.89044 1.75649 3.6782C1.53365 3.46746 1.5 3.3225 1.5 3.25C1.5 3.1775 1.53365 3.03254 1.75649 2.8218C1.98091 2.60956 2.34591 2.38388 2.85913 2.17859C3.8814 1.76968 5.3451 1.5 7 1.5C8.6549 1.5 10.1186 1.76968 11.1409 2.17859C11.6541 2.38388 12.0191 2.60956 12.2435 2.8218C12.4664 3.03254 12.5 3.1775 12.5 3.25ZM12.5 10.0808C12.2518 10.223 11.982 10.3505 11.698 10.4641C10.4582 10.96 8.79688 11.25 7 11.25C5.20312 11.25 3.54182 10.96 2.30204 10.4641C2.018 10.3505 1.74824 10.223 1.5 10.0808V12.75C1.5 12.8225 1.53365 12.9675 1.75649 13.1782C1.98091 13.3904 2.34591 13.6161 2.85913 13.8214C3.8814 14.2303 5.3451 14.5 7 14.5C8.6549 14.5 10.1186 14.2303 11.1409 13.8214C11.6541 13.6161 12.0191 13.3904 12.2435 13.1782C12.4664 12.9675 12.5 12.8225 12.5 12.75V10.0808Z" fill="#424242"/>
</svg>
