<svg width="35" height="36" viewBox="0 0 35 36" fill="none" xmlns="http://www.w3.org/2000/svg">
<path d="M4.62292 11.3501L17.5 18.8022L30.2896 11.3938" stroke="#AF7302" stroke-width="1.5" stroke-linecap="round" stroke-linejoin="round"/>
<path d="M17.5 32.0147V18.7876" stroke="#AF7302" stroke-width="1.5" stroke-linecap="round" stroke-linejoin="round"/>
<path d="M14.4813 4.11675L6.69378 8.44804C4.9292 9.42513 3.48547 11.8751 3.48547 13.8876V22.1272C3.48547 24.1397 4.9292 26.5897 6.69378 27.5668L14.4813 31.8981C16.1438 32.8168 18.8708 32.8168 20.5333 31.8981L28.3209 27.5668C30.0855 26.5897 31.5292 24.1397 31.5292 22.1272V13.8876C31.5292 11.8751 30.0855 9.42513 28.3209 8.44804L20.5333 4.11675C18.8563 3.18341 16.1438 3.18341 14.4813 4.11675Z" stroke="#AF7302" stroke-width="1.5" stroke-linecap="round" stroke-linejoin="round"/>
<path d="M24.7917 19.8084V14.471L10.9521 6.47925" stroke="#AF7302" stroke-width="1.5" stroke-linecap="round" stroke-linejoin="round"/>
</svg>
