<svg width="35" height="36" viewBox="0 0 35 36" fill="none" xmlns="http://www.w3.org/2000/svg">
<path d="M2.91663 18.8896H27.7083" stroke="#AF7302" stroke-width="1.5" stroke-miterlimit="10" stroke-linecap="round" stroke-linejoin="round"/>
<path d="M27.7083 15.4916V25.9187C27.6645 30.0749 26.527 31.1249 22.1958 31.1249H8.42917C4.025 31.1249 2.91663 30.0312 2.91663 25.6853V15.4916C2.91663 11.5541 3.83538 10.2853 7.29163 10.0812C7.64163 10.0666 8.02084 10.052 8.42917 10.052H22.1958C26.5999 10.052 27.7083 11.1458 27.7083 15.4916Z" stroke="#AF7302" stroke-width="1.5" stroke-linecap="round" stroke-linejoin="round"/>
<path d="M32.0833 10.3146V20.5083C32.0833 24.4458 31.1645 25.7146 27.7083 25.9187V15.4917C27.7083 11.1458 26.5999 10.0521 22.1958 10.0521H8.42917C8.02084 10.0521 7.64163 10.0667 7.29163 10.0812C7.33538 5.925 8.47292 4.875 12.8042 4.875H26.5708C30.9749 4.875 32.0833 5.96875 32.0833 10.3146Z" stroke="#AF7302" stroke-width="1.5" stroke-linecap="round" stroke-linejoin="round"/>
<path d="M7.65625 26.4729H10.1645" stroke="#AF7302" stroke-width="1.5" stroke-miterlimit="10" stroke-linecap="round" stroke-linejoin="round"/>
<path d="M13.2854 26.4729H18.3021" stroke="#AF7302" stroke-width="1.5" stroke-miterlimit="10" stroke-linecap="round" stroke-linejoin="round"/>
</svg>
