<svg width="20" height="21" viewBox="0 0 20 21" fill="none" xmlns="http://www.w3.org/2000/svg">
<path d="M13.3335 8.00008V5.50008C13.3335 3.65913 11.8411 2.16675 10.0001 2.16675C8.1592 2.16675 6.66681 3.65913 6.66681 5.50008V8.00008M2.99348 9.12672L2.49348 14.4601C2.35132 15.9765 2.28023 16.7347 2.53185 17.3203C2.75289 17.8348 3.14024 18.2601 3.63183 18.5282C4.19142 18.8334 4.95295 18.8334 6.47602 18.8334H13.5243C15.0473 18.8334 15.8089 18.8334 16.3685 18.5282C16.86 18.2601 17.2474 17.8348 17.4684 17.3203C17.7201 16.7347 17.649 15.9765 17.5068 14.4601L17.0068 9.12672C16.8868 7.8462 16.8267 7.20595 16.5388 6.72188C16.2851 6.29557 15.9104 5.95434 15.4623 5.74162C14.9535 5.50008 14.3104 5.50008 13.0243 5.50008L6.97602 5.50008C5.68989 5.50008 5.04682 5.50008 4.53799 5.74162C4.08987 5.95434 3.71515 6.29557 3.46153 6.72188C3.17355 7.20594 3.11353 7.8462 2.99348 9.12672Z" stroke="black" stroke-linecap="round" stroke-linejoin="round"/>
</svg>
