<svg width="202" height="19" viewBox="0 0 202 19" fill="none" xmlns="http://www.w3.org/2000/svg">
<path d="M9.62109 18.4102C8.68359 18.4102 7.79297 18.2812 6.94922 18.0234C6.11328 17.7656 5.34766 17.3906 4.65234 16.8984C3.45703 16.0312 2.54688 14.9297 1.92188 13.5938C1.29688 12.2578 0.984375 10.7344 0.984375 9.02344C0.984375 8.00781 1.12891 7.03125 1.41797 6.09375C1.70703 5.15625 2.12109 4.31641 2.66016 3.57422C3.44141 2.51953 4.39844 1.69922 5.53125 1.11328C6.67188 0.527344 7.88281 0.234375 9.16406 0.234375C9.96094 0.234375 10.7891 0.347656 11.6484 0.574219C12.5078 0.800781 12.9688 0.914062 13.0312 0.914062C13.1953 0.914062 13.4023 0.882812 13.6523 0.820312C13.9102 0.75 14.0781 0.714844 14.1562 0.714844C14.5 0.714844 14.7852 1.00781 15.0117 1.59375C15.2461 2.17969 15.3633 2.92187 15.3633 3.82031C15.3633 4.14844 15.3047 4.40234 15.1875 4.58203C15.0781 4.76172 14.918 4.85156 14.707 4.85156C14.4023 4.85156 14.1328 4.56641 13.8984 3.99609C13.7422 3.61328 13.5977 3.32812 13.4648 3.14062C13.082 2.60938 12.5273 2.20312 11.8008 1.92188C11.082 1.63281 10.2461 1.48828 9.29297 1.48828C7.44141 1.48828 5.98438 2.09375 4.92188 3.30469C3.86719 4.51562 3.33984 6.18359 3.33984 8.30859C3.33984 9.38672 3.46484 10.4219 3.71484 11.4141C3.97266 12.3984 4.33594 13.2656 4.80469 14.0156C5.42969 15.0156 6.16406 15.7578 7.00781 16.2422C7.85156 16.7266 8.82812 16.9688 9.9375 16.9688C10.7656 16.9688 11.5195 16.832 12.1992 16.5586C12.8789 16.2852 13.4297 15.9023 13.8516 15.4102C14 15.2305 14.1758 14.9844 14.3789 14.6719C14.6602 14.2344 14.8984 14.0156 15.0938 14.0156C15.2734 14.0156 15.4141 14.1016 15.5156 14.2734C15.6172 14.4375 15.668 14.6641 15.668 14.9531C15.668 15.5234 15.5391 16.0469 15.2812 16.5234C15.0312 16.9922 14.7695 17.2266 14.4961 17.2266C14.4727 17.2266 14.4336 17.2188 14.3789 17.2031C14.3242 17.1875 14.2852 17.1797 14.2617 17.1797C14.1523 17.1797 13.9922 17.2383 13.7812 17.3555C13.6797 17.4023 13.5977 17.4414 13.5352 17.4727C12.9102 17.793 12.2852 18.0273 11.6602 18.1758C11.0352 18.332 10.3555 18.4102 9.62109 18.4102ZM26.0859 0.714844C26.2734 0.542969 26.4258 0.421875 26.543 0.351562C26.668 0.273437 26.7812 0.234375 26.8828 0.234375C27.1797 0.234375 27.5117 0.585938 27.8789 1.28906C28.2539 1.99219 28.4414 2.71484 28.4414 3.45703C28.4414 3.73828 28.3867 3.95703 28.2773 4.11328C28.168 4.26953 28.0234 4.34766 27.8438 4.34766C27.5859 4.34766 27.2773 4.09375 26.918 3.58594C26.7617 3.35938 26.6367 3.1875 26.543 3.07031C26.0977 2.51563 25.5859 2.10547 25.0078 1.83984C24.4375 1.57422 23.7812 1.44141 23.0391 1.44141C22.0703 1.44141 21.293 1.70312 20.707 2.22656C20.1211 2.74219 19.8281 3.42578 19.8281 4.27734C19.8281 5.10547 20.0508 5.76953 20.4961 6.26953C20.9414 6.76953 21.9336 7.32812 23.4727 7.94531C23.6367 8.01562 23.8828 8.11328 24.2109 8.23828C25.7656 8.84766 26.8867 9.46875 27.5742 10.1016C28.0117 10.5 28.3398 10.9688 28.5586 11.5078C28.7852 12.0391 28.8984 12.6289 28.8984 13.2773C28.8984 14.7695 28.3242 16 27.1758 16.9688C26.0273 17.9297 24.5508 18.4102 22.7461 18.4102C21.6602 18.4102 20.6484 18.2578 19.7109 17.9531C18.7812 17.6484 18.1367 17.2812 17.7773 16.8516C17.6055 16.625 17.4531 16.2148 17.3203 15.6211C17.1953 15.0195 17.1328 14.3711 17.1328 13.6758C17.1328 13.3242 17.1836 13.0547 17.2852 12.8672C17.3945 12.6719 17.543 12.5742 17.7305 12.5742C18.0742 12.5742 18.375 12.9961 18.6328 13.8398C18.7656 14.2773 18.8828 14.6172 18.9844 14.8594C19.2891 15.5781 19.7734 16.1328 20.4375 16.5234C21.1016 16.9141 21.8867 17.1094 22.793 17.1094C23.9648 17.1094 24.9141 16.793 25.6406 16.1602C26.3672 15.5273 26.7305 14.7148 26.7305 13.7227C26.7305 13.4414 26.6914 13.1797 26.6133 12.9375C26.543 12.6875 26.4297 12.4453 26.2734 12.2109C25.7734 11.4922 24.7266 10.8281 23.1328 10.2188C22.8203 10.0938 22.582 10 22.418 9.9375C22.2773 9.88281 22.0703 9.80469 21.7969 9.70312C20.3203 9.14062 19.2773 8.51562 18.668 7.82812C18.3477 7.46875 18.1055 7.06641 17.9414 6.62109C17.7852 6.17578 17.707 5.67969 17.707 5.13281C17.707 3.67188 18.2031 2.49219 19.1953 1.59375C20.1875 0.6875 21.4922 0.234375 23.1094 0.234375C23.5156 0.234375 23.9609 0.277344 24.4453 0.363281C24.9375 0.441406 25.4844 0.558594 26.0859 0.714844ZM35.8359 4.41797V3.43359C35.8359 2.75391 35.7891 2.33594 35.6953 2.17969C35.6094 2.02344 35.3672 1.94531 34.9688 1.94531H33.7031C33.2266 1.94531 32.8594 2.00781 32.6016 2.13281C32.3516 2.25 32.125 2.46875 31.9219 2.78906C31.7812 3.00781 31.6133 3.35156 31.418 3.82031C31.1055 4.58594 30.793 4.96875 30.4805 4.96875C30.3086 4.96875 30.1758 4.88281 30.082 4.71094C29.9961 4.53125 29.9531 4.26562 29.9531 3.91406C29.9531 2.89063 30.1016 2.04688 30.3984 1.38281C30.6953 0.71875 31.0586 0.386719 31.4883 0.386719C31.5273 0.386719 31.6094 0.402344 31.7344 0.433594C32.1719 0.542969 32.5938 0.597656 33 0.597656H40.6172C41.0234 0.597656 41.4453 0.542969 41.8828 0.433594C42.0078 0.402344 42.0898 0.386719 42.1289 0.386719C42.5664 0.386719 42.9336 0.722656 43.2305 1.39453C43.5352 2.05859 43.6875 2.89844 43.6875 3.91406C43.6875 4.25781 43.6406 4.51953 43.5469 4.69922C43.4531 4.87891 43.3164 4.96875 43.1367 4.96875C42.8242 4.96875 42.5195 4.59375 42.2227 3.84375C42.0273 3.35938 41.8594 3.00781 41.7188 2.78906C41.5156 2.46875 41.2852 2.25 41.0273 2.13281C40.7695 2.00781 40.3984 1.94531 39.9141 1.94531H38.6484C38.2578 1.94531 38.0195 2.01562 37.9336 2.15625C37.8477 2.28906 37.8047 2.66016 37.8047 3.26953V4.41797V9.23438C37.8047 11.8516 37.8281 13.6523 37.875 14.6367C37.9297 15.6211 38.0195 16.1914 38.1445 16.3477C38.207 16.4336 38.4609 16.5508 38.9062 16.6992C39.3594 16.8477 39.5859 17.0352 39.5859 17.2617C39.5859 17.5586 39.3711 17.7734 38.9414 17.9062C38.5117 18.0312 37.8047 18.0938 36.8203 18.0938C35.8281 18.0938 35.1133 18.0273 34.6758 17.8945C34.2461 17.7617 34.0312 17.5508 34.0312 17.2617C34.0312 17.0352 34.2539 16.8477 34.6992 16.6992C35.1523 16.5508 35.4141 16.4297 35.4844 16.3359C35.6094 16.1797 35.6992 15.5742 35.7539 14.5195C35.8086 13.4648 35.8359 11.7031 35.8359 9.23438V4.41797ZM45.7617 12.6211C45.3164 12.6211 44.8516 12.6328 44.3672 12.6562C43.8828 12.6797 43.6289 12.6914 43.6055 12.6914C43.3711 12.6914 43.207 12.6641 43.1133 12.6094C43.0273 12.5469 42.9844 12.4414 42.9844 12.293C42.9844 11.9336 43.0977 11.6328 43.3242 11.3906C43.5586 11.1406 43.8672 11.0156 44.25 11.0156C44.2812 11.0156 44.3516 11.0156 44.4609 11.0156C45.0078 11.0312 45.5391 11.0391 46.0547 11.0391C46.3672 11.0391 46.7305 11.0273 47.1445 11.0039C47.5664 10.9805 47.8281 10.9688 47.9297 10.9688C48.1562 10.9688 48.3164 11 48.4102 11.0625C48.5039 11.125 48.5508 11.2305 48.5508 11.3789C48.5508 11.7305 48.4336 12.0312 48.1992 12.2812C47.9727 12.5234 47.6641 12.6445 47.2734 12.6445C47.25 12.6445 47.0664 12.6406 46.7227 12.6328C46.3867 12.625 46.0664 12.6211 45.7617 12.6211ZM59.5195 18.4102C58.582 18.4102 57.6914 18.2812 56.8477 18.0234C56.0117 17.7656 55.2461 17.3906 54.5508 16.8984C53.3555 16.0312 52.4453 14.9297 51.8203 13.5938C51.1953 12.2578 50.8828 10.7344 50.8828 9.02344C50.8828 8.00781 51.0273 7.03125 51.3164 6.09375C51.6055 5.15625 52.0195 4.31641 52.5586 3.57422C53.3398 2.51953 54.2969 1.69922 55.4297 1.11328C56.5703 0.527344 57.7812 0.234375 59.0625 0.234375C59.8594 0.234375 60.6875 0.347656 61.5469 0.574219C62.4062 0.800781 62.8672 0.914062 62.9297 0.914062C63.0938 0.914062 63.3008 0.882812 63.5508 0.820312C63.8086 0.75 63.9766 0.714844 64.0547 0.714844C64.3984 0.714844 64.6836 1.00781 64.9102 1.59375C65.1445 2.17969 65.2617 2.92187 65.2617 3.82031C65.2617 4.14844 65.2031 4.40234 65.0859 4.58203C64.9766 4.76172 64.8164 4.85156 64.6055 4.85156C64.3008 4.85156 64.0312 4.56641 63.7969 3.99609C63.6406 3.61328 63.4961 3.32812 63.3633 3.14062C62.9805 2.60938 62.4258 2.20312 61.6992 1.92188C60.9805 1.63281 60.1445 1.48828 59.1914 1.48828C57.3398 1.48828 55.8828 2.09375 54.8203 3.30469C53.7656 4.51562 53.2383 6.18359 53.2383 8.30859C53.2383 9.38672 53.3633 10.4219 53.6133 11.4141C53.8711 12.3984 54.2344 13.2656 54.7031 14.0156C55.3281 15.0156 56.0625 15.7578 56.9062 16.2422C57.75 16.7266 58.7266 16.9688 59.8359 16.9688C60.6641 16.9688 61.418 16.832 62.0977 16.5586C62.7773 16.2852 63.3281 15.9023 63.75 15.4102C63.8984 15.2305 64.0742 14.9844 64.2773 14.6719C64.5586 14.2344 64.7969 14.0156 64.9922 14.0156C65.1719 14.0156 65.3125 14.1016 65.4141 14.2734C65.5156 14.4375 65.5664 14.6641 65.5664 14.9531C65.5664 15.5234 65.4375 16.0469 65.1797 16.5234C64.9297 16.9922 64.668 17.2266 64.3945 17.2266C64.3711 17.2266 64.332 17.2188 64.2773 17.2031C64.2227 17.1875 64.1836 17.1797 64.1602 17.1797C64.0508 17.1797 63.8906 17.2383 63.6797 17.3555C63.5781 17.4023 63.4961 17.4414 63.4336 17.4727C62.8086 17.793 62.1836 18.0273 61.5586 18.1758C60.9336 18.332 60.2539 18.4102 59.5195 18.4102ZM75.7734 18.4805C74.7734 18.4805 73.8203 18.332 72.9141 18.0352C72.0156 17.7461 71.1992 17.3203 70.4648 16.7578C69.3477 15.8906 68.4766 14.7812 67.8516 13.4297C67.2266 12.0703 66.9141 10.6016 66.9141 9.02344C66.9141 8 67.0547 7.02734 67.3359 6.10547C67.625 5.18359 68.043 4.33984 68.5898 3.57422C69.3555 2.49609 70.3477 1.66016 71.5664 1.06641C72.7852 0.464844 74.1211 0.164062 75.5742 0.164062C76.5742 0.164062 77.5195 0.320312 78.4102 0.632812C79.3008 0.945313 80.1172 1.40625 80.8594 2.01562C81.8984 2.86719 82.7031 3.96094 83.2734 5.29688C83.8516 6.63281 84.1406 8.07422 84.1406 9.62109C84.1406 10.668 84.0078 11.6523 83.7422 12.5742C83.4766 13.4961 83.082 14.3281 82.5586 15.0703C81.8008 16.1641 80.8359 17.0078 79.6641 17.6016C78.4922 18.1875 77.1953 18.4805 75.7734 18.4805ZM81.7969 10.3008C81.7969 9.26172 81.6719 8.26562 81.4219 7.3125C81.1719 6.35156 80.8164 5.50781 80.3555 4.78125C79.6836 3.71094 78.8828 2.89453 77.9531 2.33203C77.0312 1.76953 76.0312 1.48828 74.9531 1.48828C73.2344 1.48828 71.8555 2.10938 70.8164 3.35156C69.7852 4.59375 69.2695 6.25391 69.2695 8.33203C69.2695 9.37891 69.3945 10.3945 69.6445 11.3789C69.9023 12.3555 70.2734 13.2344 70.7578 14.0156C71.375 15.0469 72.1289 15.8281 73.0195 16.3594C73.9102 16.8906 74.9141 17.1562 76.0312 17.1562C77.7969 17.1562 79.1992 16.543 80.2383 15.3164C81.2773 14.082 81.7969 12.4102 81.7969 10.3008ZM93.8906 16.6055C94.7422 16.6055 95.3867 16.4961 95.8242 16.2773C96.2617 16.0586 96.6367 15.668 96.9492 15.1055C97.0742 14.8867 97.207 14.582 97.3477 14.1914C97.543 13.6445 97.7656 13.3711 98.0156 13.3711C98.1953 13.3711 98.3398 13.4727 98.4492 13.6758C98.5586 13.8711 98.6133 14.1445 98.6133 14.4961C98.6133 15.4414 98.4531 16.3125 98.1328 17.1094C97.8125 17.8984 97.4844 18.293 97.1484 18.293C97.1094 18.293 97.0117 18.2695 96.8555 18.2227C96.3242 18.0742 95.7891 18 95.25 18H88.1484C87.4297 18 86.9219 17.9453 86.625 17.8359C86.3281 17.7188 86.1797 17.5273 86.1797 17.2617C86.1797 17.0352 86.4062 16.8477 86.8594 16.6992C87.3203 16.5508 87.582 16.4336 87.6445 16.3477C87.7695 16.1914 87.8555 15.6211 87.9023 14.6367C87.957 13.6523 87.9844 11.8516 87.9844 9.23438C87.9844 6.64062 87.957 4.85547 87.9023 3.87891C87.8555 2.90234 87.7695 2.33594 87.6445 2.17969C87.582 2.09375 87.3203 1.97656 86.8594 1.82812C86.4062 1.67969 86.1797 1.49609 86.1797 1.27734C86.1797 0.972656 86.3984 0.753906 86.8359 0.621094C87.2812 0.480469 87.9922 0.410156 88.9688 0.410156C89.9375 0.410156 90.6406 0.480469 91.0781 0.621094C91.5234 0.753906 91.7461 0.972656 91.7461 1.27734C91.7461 1.49609 91.5195 1.67969 91.0664 1.82812C90.6133 1.97656 90.3516 2.09766 90.2812 2.19141C90.1562 2.35547 90.0664 2.99609 90.0117 4.11328C89.957 5.23047 89.9297 6.9375 89.9297 9.23438C89.9297 11.5078 89.9531 13.1211 90 14.0742C90.0469 15.0195 90.125 15.625 90.2344 15.8906C90.3438 16.1484 90.6016 16.332 91.0078 16.4414C91.4141 16.5508 92.0703 16.6055 92.9766 16.6055H93.8906ZM107.531 16.6055C108.383 16.6055 109.027 16.4961 109.465 16.2773C109.902 16.0586 110.277 15.668 110.59 15.1055C110.715 14.8867 110.848 14.582 110.988 14.1914C111.184 13.6445 111.406 13.3711 111.656 13.3711C111.836 13.3711 111.98 13.4727 112.09 13.6758C112.199 13.8711 112.254 14.1445 112.254 14.4961C112.254 15.4414 112.094 16.3125 111.773 17.1094C111.453 17.8984 111.125 18.293 110.789 18.293C110.75 18.293 110.652 18.2695 110.496 18.2227C109.965 18.0742 109.43 18 108.891 18H101.789C101.07 18 100.562 17.9453 100.266 17.8359C99.9688 17.7188 99.8203 17.5273 99.8203 17.2617C99.8203 17.0352 100.047 16.8477 100.5 16.6992C100.961 16.5508 101.223 16.4336 101.285 16.3477C101.41 16.1914 101.496 15.6211 101.543 14.6367C101.598 13.6523 101.625 11.8516 101.625 9.23438C101.625 6.64062 101.598 4.85547 101.543 3.87891C101.496 2.90234 101.41 2.33594 101.285 2.17969C101.223 2.09375 100.961 1.97656 100.5 1.82812C100.047 1.67969 99.8203 1.49609 99.8203 1.27734C99.8203 0.972656 100.039 0.753906 100.477 0.621094C100.922 0.480469 101.633 0.410156 102.609 0.410156C103.578 0.410156 104.281 0.480469 104.719 0.621094C105.164 0.753906 105.387 0.972656 105.387 1.27734C105.387 1.49609 105.16 1.67969 104.707 1.82812C104.254 1.97656 103.992 2.09766 103.922 2.19141C103.797 2.35547 103.707 2.99609 103.652 4.11328C103.598 5.23047 103.57 6.9375 103.57 9.23438C103.57 11.5078 103.594 13.1211 103.641 14.0742C103.688 15.0195 103.766 15.625 103.875 15.8906C103.984 16.1484 104.242 16.332 104.648 16.4414C105.055 16.5508 105.711 16.6055 106.617 16.6055H107.531ZM115.09 18C114.371 18 113.863 17.9453 113.566 17.8359C113.27 17.7188 113.121 17.5273 113.121 17.2617C113.121 17.0352 113.344 16.8477 113.789 16.6992C114.242 16.5508 114.5 16.4336 114.562 16.3477C114.688 16.1914 114.773 15.6211 114.82 14.6367C114.875 13.6523 114.902 11.8516 114.902 9.23438C114.902 6.64062 114.875 4.85547 114.82 3.87891C114.773 2.90234 114.688 2.33594 114.562 2.17969C114.5 2.09375 114.242 1.97656 113.789 1.82812C113.344 1.67969 113.121 1.49609 113.121 1.27734C113.121 1.00391 113.273 0.808594 113.578 0.691406C113.883 0.566406 114.387 0.503906 115.09 0.503906H123.234C123.625 0.503906 124.02 0.464844 124.418 0.386719C124.824 0.308594 125.035 0.269531 125.051 0.269531C125.371 0.269531 125.621 0.507812 125.801 0.984375C125.988 1.45312 126.082 2.10156 126.082 2.92969C126.082 3.24219 126.027 3.48438 125.918 3.65625C125.816 3.82812 125.664 3.91406 125.461 3.91406C125.258 3.91406 125.031 3.69141 124.781 3.24609C124.703 3.10547 124.641 3 124.594 2.92969C124.359 2.53906 124.086 2.27344 123.773 2.13281C123.469 1.99219 123 1.92188 122.367 1.92188H119.273C118.531 1.92188 118.012 1.95703 117.715 2.02734C117.426 2.08984 117.25 2.20703 117.188 2.37891C117.086 2.62109 117.016 3.09375 116.977 3.79688C116.938 4.49219 116.918 5.60938 116.918 7.14844V7.34766C116.918 7.72266 116.949 7.94922 117.012 8.02734C117.074 8.09766 117.227 8.13281 117.469 8.13281H120.633C121.172 8.13281 121.551 8.04688 121.77 7.875C121.996 7.70312 122.141 7.37891 122.203 6.90234C122.211 6.84766 122.223 6.76562 122.238 6.65625C122.332 5.92969 122.551 5.56641 122.895 5.56641C123.199 5.56641 123.406 5.76953 123.516 6.17578C123.633 6.57422 123.691 7.46094 123.691 8.83594C123.691 10.2031 123.633 11.0859 123.516 11.4844C123.406 11.875 123.199 12.0703 122.895 12.0703C122.551 12.0703 122.332 11.7109 122.238 10.9922C122.223 10.875 122.211 10.7891 122.203 10.7344C122.141 10.2578 121.996 9.93359 121.77 9.76172C121.551 9.58984 121.172 9.50391 120.633 9.50391H117.469C117.242 9.50391 117.09 9.56641 117.012 9.69141C116.934 9.80859 116.895 10.0586 116.895 10.4414C116.895 10.5352 116.898 10.7539 116.906 11.0977C116.914 11.4336 116.918 11.7266 116.918 11.9766C116.918 13.1172 116.941 13.9961 116.988 14.6133C117.035 15.2305 117.109 15.6562 117.211 15.8906C117.312 16.1484 117.562 16.332 117.961 16.4414C118.367 16.5508 119.02 16.6055 119.918 16.6055H122.074C122.934 16.6055 123.582 16.4961 124.02 16.2773C124.457 16.0586 124.832 15.668 125.145 15.1055C125.27 14.8789 125.402 14.5742 125.543 14.1914C125.738 13.6445 125.961 13.3711 126.211 13.3711C126.398 13.3711 126.547 13.4727 126.656 13.6758C126.773 13.8789 126.832 14.1523 126.832 14.4961C126.832 15.4414 126.672 16.3125 126.352 17.1094C126.031 17.8984 125.703 18.293 125.367 18.293C125.328 18.293 125.227 18.2695 125.062 18.2227C124.523 18.0742 123.984 18 123.445 18H115.09ZM136.582 18.4102C135.645 18.4102 134.754 18.2812 133.91 18.0234C133.074 17.7656 132.309 17.3906 131.613 16.8984C130.418 16.0312 129.508 14.9297 128.883 13.5938C128.258 12.2578 127.945 10.7344 127.945 9.02344C127.945 8.00781 128.09 7.03125 128.379 6.09375C128.668 5.15625 129.082 4.31641 129.621 3.57422C130.402 2.51953 131.359 1.69922 132.492 1.11328C133.633 0.527344 134.844 0.234375 136.125 0.234375C136.922 0.234375 137.75 0.347656 138.609 0.574219C139.469 0.800781 139.93 0.914062 139.992 0.914062C140.156 0.914062 140.363 0.882812 140.613 0.820312C140.871 0.75 141.039 0.714844 141.117 0.714844C141.461 0.714844 141.746 1.00781 141.973 1.59375C142.207 2.17969 142.324 2.92187 142.324 3.82031C142.324 4.14844 142.266 4.40234 142.148 4.58203C142.039 4.76172 141.879 4.85156 141.668 4.85156C141.363 4.85156 141.094 4.56641 140.859 3.99609C140.703 3.61328 140.559 3.32812 140.426 3.14062C140.043 2.60938 139.488 2.20312 138.762 1.92188C138.043 1.63281 137.207 1.48828 136.254 1.48828C134.402 1.48828 132.945 2.09375 131.883 3.30469C130.828 4.51562 130.301 6.18359 130.301 8.30859C130.301 9.38672 130.426 10.4219 130.676 11.4141C130.934 12.3984 131.297 13.2656 131.766 14.0156C132.391 15.0156 133.125 15.7578 133.969 16.2422C134.812 16.7266 135.789 16.9688 136.898 16.9688C137.727 16.9688 138.48 16.832 139.16 16.5586C139.84 16.2852 140.391 15.9023 140.812 15.4102C140.961 15.2305 141.137 14.9844 141.34 14.6719C141.621 14.2344 141.859 14.0156 142.055 14.0156C142.234 14.0156 142.375 14.1016 142.477 14.2734C142.578 14.4375 142.629 14.6641 142.629 14.9531C142.629 15.5234 142.5 16.0469 142.242 16.5234C141.992 16.9922 141.73 17.2266 141.457 17.2266C141.434 17.2266 141.395 17.2188 141.34 17.2031C141.285 17.1875 141.246 17.1797 141.223 17.1797C141.113 17.1797 140.953 17.2383 140.742 17.3555C140.641 17.4023 140.559 17.4414 140.496 17.4727C139.871 17.793 139.246 18.0273 138.621 18.1758C137.996 18.332 137.316 18.4102 136.582 18.4102ZM149.062 4.41797V3.43359C149.062 2.75391 149.016 2.33594 148.922 2.17969C148.836 2.02344 148.594 1.94531 148.195 1.94531H146.93C146.453 1.94531 146.086 2.00781 145.828 2.13281C145.578 2.25 145.352 2.46875 145.148 2.78906C145.008 3.00781 144.84 3.35156 144.645 3.82031C144.332 4.58594 144.02 4.96875 143.707 4.96875C143.535 4.96875 143.402 4.88281 143.309 4.71094C143.223 4.53125 143.18 4.26562 143.18 3.91406C143.18 2.89063 143.328 2.04688 143.625 1.38281C143.922 0.71875 144.285 0.386719 144.715 0.386719C144.754 0.386719 144.836 0.402344 144.961 0.433594C145.398 0.542969 145.82 0.597656 146.227 0.597656H153.844C154.25 0.597656 154.672 0.542969 155.109 0.433594C155.234 0.402344 155.316 0.386719 155.355 0.386719C155.793 0.386719 156.16 0.722656 156.457 1.39453C156.762 2.05859 156.914 2.89844 156.914 3.91406C156.914 4.25781 156.867 4.51953 156.773 4.69922C156.68 4.87891 156.543 4.96875 156.363 4.96875C156.051 4.96875 155.746 4.59375 155.449 3.84375C155.254 3.35938 155.086 3.00781 154.945 2.78906C154.742 2.46875 154.512 2.25 154.254 2.13281C153.996 2.00781 153.625 1.94531 153.141 1.94531H151.875C151.484 1.94531 151.246 2.01562 151.16 2.15625C151.074 2.28906 151.031 2.66016 151.031 3.26953V4.41797V9.23438C151.031 11.8516 151.055 13.6523 151.102 14.6367C151.156 15.6211 151.246 16.1914 151.371 16.3477C151.434 16.4336 151.688 16.5508 152.133 16.6992C152.586 16.8477 152.812 17.0352 152.812 17.2617C152.812 17.5586 152.598 17.7734 152.168 17.9062C151.738 18.0312 151.031 18.0938 150.047 18.0938C149.055 18.0938 148.34 18.0273 147.902 17.8945C147.473 17.7617 147.258 17.5508 147.258 17.2617C147.258 17.0352 147.48 16.8477 147.926 16.6992C148.379 16.5508 148.641 16.4297 148.711 16.3359C148.836 16.1797 148.926 15.5742 148.98 14.5195C149.035 13.4648 149.062 11.7031 149.062 9.23438V4.41797ZM160.652 0.410156C161.629 0.410156 162.336 0.480469 162.773 0.621094C163.219 0.753906 163.441 0.972656 163.441 1.27734C163.441 1.49609 163.211 1.67969 162.75 1.82812C162.297 1.97656 162.039 2.09375 161.977 2.17969C161.852 2.33594 161.762 2.90234 161.707 3.87891C161.66 4.85547 161.637 6.64062 161.637 9.23438C161.637 11.8516 161.66 13.6523 161.707 14.6367C161.762 15.6211 161.852 16.1914 161.977 16.3477C162.039 16.4336 162.297 16.5508 162.75 16.6992C163.211 16.8477 163.441 17.0352 163.441 17.2617C163.441 17.5508 163.223 17.7617 162.785 17.8945C162.355 18.0273 161.645 18.0938 160.652 18.0938C159.66 18.0938 158.949 18.0273 158.52 17.8945C158.09 17.7617 157.875 17.5508 157.875 17.2617C157.875 17.0352 158.098 16.8516 158.543 16.7109C158.996 16.5625 159.262 16.4375 159.34 16.3359C159.457 16.1875 159.539 15.6211 159.586 14.6367C159.641 13.6523 159.668 11.8516 159.668 9.23438C159.668 6.64062 159.641 4.85547 159.586 3.87891C159.539 2.90234 159.457 2.33984 159.34 2.19141C159.27 2.09766 159.008 1.97656 158.555 1.82812C158.102 1.67969 157.875 1.49609 157.875 1.27734C157.875 0.972656 158.094 0.753906 158.531 0.621094C158.977 0.480469 159.684 0.410156 160.652 0.410156ZM174.07 18.4805C173.07 18.4805 172.117 18.332 171.211 18.0352C170.312 17.7461 169.496 17.3203 168.762 16.7578C167.645 15.8906 166.773 14.7812 166.148 13.4297C165.523 12.0703 165.211 10.6016 165.211 9.02344C165.211 8 165.352 7.02734 165.633 6.10547C165.922 5.18359 166.34 4.33984 166.887 3.57422C167.652 2.49609 168.645 1.66016 169.863 1.06641C171.082 0.464844 172.418 0.164062 173.871 0.164062C174.871 0.164062 175.816 0.320312 176.707 0.632812C177.598 0.945313 178.414 1.40625 179.156 2.01562C180.195 2.86719 181 3.96094 181.57 5.29688C182.148 6.63281 182.438 8.07422 182.438 9.62109C182.438 10.668 182.305 11.6523 182.039 12.5742C181.773 13.4961 181.379 14.3281 180.855 15.0703C180.098 16.1641 179.133 17.0078 177.961 17.6016C176.789 18.1875 175.492 18.4805 174.07 18.4805ZM180.094 10.3008C180.094 9.26172 179.969 8.26562 179.719 7.3125C179.469 6.35156 179.113 5.50781 178.652 4.78125C177.98 3.71094 177.18 2.89453 176.25 2.33203C175.328 1.76953 174.328 1.48828 173.25 1.48828C171.531 1.48828 170.152 2.10938 169.113 3.35156C168.082 4.59375 167.566 6.25391 167.566 8.33203C167.566 9.37891 167.691 10.3945 167.941 11.3789C168.199 12.3555 168.57 13.2344 169.055 14.0156C169.672 15.0469 170.426 15.8281 171.316 16.3594C172.207 16.8906 173.211 17.1562 174.328 17.1562C176.094 17.1562 177.496 16.543 178.535 15.3164C179.574 14.082 180.094 12.4102 180.094 10.3008ZM187.195 3.62109V9.23438C187.195 11.5625 187.223 13.2891 187.277 14.4141C187.332 15.5391 187.422 16.1797 187.547 16.3359C187.617 16.4297 187.879 16.5508 188.332 16.6992C188.785 16.8477 189.012 17.0352 189.012 17.2617C189.012 17.543 188.82 17.75 188.438 17.8828C188.062 18.0078 187.445 18.0703 186.586 18.0703C185.719 18.0703 185.09 18.0078 184.699 17.8828C184.309 17.75 184.113 17.543 184.113 17.2617C184.113 17.0352 184.34 16.8477 184.793 16.6992C185.254 16.5508 185.516 16.4336 185.578 16.3477C185.703 16.1914 185.789 15.6211 185.836 14.6367C185.891 13.6523 185.918 11.8516 185.918 9.23438C185.918 6.64062 185.891 4.85547 185.836 3.87891C185.789 2.90234 185.703 2.33594 185.578 2.17969C185.516 2.09375 185.254 1.97656 184.793 1.82812C184.34 1.67969 184.113 1.49609 184.113 1.27734C184.113 1.00391 184.281 0.800781 184.617 0.667969C184.953 0.527344 185.441 0.457031 186.082 0.457031C186.582 0.457031 186.965 0.515625 187.23 0.632812C187.496 0.75 187.754 0.980469 188.004 1.32422C188.145 1.50391 188.422 1.875 188.836 2.4375C191.945 6.65625 195.148 10.7656 198.445 14.7656V9.26953C198.445 6.47266 198.418 4.63281 198.363 3.75C198.316 2.85938 198.23 2.33594 198.105 2.17969C198.043 2.09375 197.781 1.97656 197.32 1.82812C196.867 1.67969 196.641 1.49609 196.641 1.27734C196.641 0.988281 196.832 0.78125 197.215 0.65625C197.605 0.523438 198.23 0.457031 199.09 0.457031C199.957 0.457031 200.582 0.523438 200.965 0.65625C201.348 0.78125 201.539 0.988281 201.539 1.27734C201.539 1.37891 201.488 1.47266 201.387 1.55859C201.293 1.64453 201.145 1.72656 200.941 1.80469C200.887 1.82031 200.809 1.84375 200.707 1.875C200.277 2.00781 200.035 2.17578 199.98 2.37891C199.895 2.68359 199.828 3.80859 199.781 5.75391C199.742 7.69922 199.723 10.3828 199.723 13.8047V17.1562C199.723 17.625 199.684 17.9102 199.605 18.0117C199.527 18.1133 199.391 18.1641 199.195 18.1641C198.93 18.1641 198.699 18.1055 198.504 17.9883C198.309 17.8711 198.023 17.5859 197.648 17.1328C196.859 16.1719 195.488 14.4375 193.535 11.9297C191.59 9.41406 189.477 6.64453 187.195 3.62109Z" fill="black"/>
</svg>
