<svg width="44" height="19" viewBox="0 0 44 19" fill="none" xmlns="http://www.w3.org/2000/svg">
<path d="M9.62109 18.4102C8.68359 18.4102 7.79297 18.2812 6.94922 18.0234C6.11328 17.7656 5.34766 17.3906 4.65234 16.8984C3.45703 16.0312 2.54688 14.9297 1.92188 13.5938C1.29688 12.2578 0.984375 10.7344 0.984375 9.02344C0.984375 8.00781 1.12891 7.03125 1.41797 6.09375C1.70703 5.15625 2.12109 4.31641 2.66016 3.57422C3.44141 2.51953 4.39844 1.69922 5.53125 1.11328C6.67188 0.527344 7.88281 0.234375 9.16406 0.234375C9.96094 0.234375 10.7891 0.347656 11.6484 0.574219C12.5078 0.800781 12.9688 0.914062 13.0312 0.914062C13.1953 0.914062 13.4023 0.882812 13.6523 0.820312C13.9102 0.75 14.0781 0.714844 14.1562 0.714844C14.5 0.714844 14.7852 1.00781 15.0117 1.59375C15.2461 2.17969 15.3633 2.92187 15.3633 3.82031C15.3633 4.14844 15.3047 4.40234 15.1875 4.58203C15.0781 4.76172 14.918 4.85156 14.707 4.85156C14.4023 4.85156 14.1328 4.56641 13.8984 3.99609C13.7422 3.61328 13.5977 3.32812 13.4648 3.14062C13.082 2.60938 12.5273 2.20312 11.8008 1.92188C11.082 1.63281 10.2461 1.48828 9.29297 1.48828C7.44141 1.48828 5.98438 2.09375 4.92188 3.30469C3.86719 4.51562 3.33984 6.18359 3.33984 8.30859C3.33984 9.38672 3.46484 10.4219 3.71484 11.4141C3.97266 12.3984 4.33594 13.2656 4.80469 14.0156C5.42969 15.0156 6.16406 15.7578 7.00781 16.2422C7.85156 16.7266 8.82812 16.9688 9.9375 16.9688C10.7656 16.9688 11.5195 16.832 12.1992 16.5586C12.8789 16.2852 13.4297 15.9023 13.8516 15.4102C14 15.2305 14.1758 14.9844 14.3789 14.6719C14.6602 14.2344 14.8984 14.0156 15.0938 14.0156C15.2734 14.0156 15.4141 14.1016 15.5156 14.2734C15.6172 14.4375 15.668 14.6641 15.668 14.9531C15.668 15.5234 15.5391 16.0469 15.2812 16.5234C15.0312 16.9922 14.7695 17.2266 14.4961 17.2266C14.4727 17.2266 14.4336 17.2188 14.3789 17.2031C14.3242 17.1875 14.2852 17.1797 14.2617 17.1797C14.1523 17.1797 13.9922 17.2383 13.7812 17.3555C13.6797 17.4023 13.5977 17.4414 13.5352 17.4727C12.9102 17.793 12.2852 18.0273 11.6602 18.1758C11.0352 18.332 10.3555 18.4102 9.62109 18.4102ZM26.0859 0.714844C26.2734 0.542969 26.4258 0.421875 26.543 0.351562C26.668 0.273437 26.7812 0.234375 26.8828 0.234375C27.1797 0.234375 27.5117 0.585938 27.8789 1.28906C28.2539 1.99219 28.4414 2.71484 28.4414 3.45703C28.4414 3.73828 28.3867 3.95703 28.2773 4.11328C28.168 4.26953 28.0234 4.34766 27.8438 4.34766C27.5859 4.34766 27.2773 4.09375 26.918 3.58594C26.7617 3.35938 26.6367 3.1875 26.543 3.07031C26.0977 2.51563 25.5859 2.10547 25.0078 1.83984C24.4375 1.57422 23.7812 1.44141 23.0391 1.44141C22.0703 1.44141 21.293 1.70312 20.707 2.22656C20.1211 2.74219 19.8281 3.42578 19.8281 4.27734C19.8281 5.10547 20.0508 5.76953 20.4961 6.26953C20.9414 6.76953 21.9336 7.32812 23.4727 7.94531C23.6367 8.01562 23.8828 8.11328 24.2109 8.23828C25.7656 8.84766 26.8867 9.46875 27.5742 10.1016C28.0117 10.5 28.3398 10.9688 28.5586 11.5078C28.7852 12.0391 28.8984 12.6289 28.8984 13.2773C28.8984 14.7695 28.3242 16 27.1758 16.9688C26.0273 17.9297 24.5508 18.4102 22.7461 18.4102C21.6602 18.4102 20.6484 18.2578 19.7109 17.9531C18.7812 17.6484 18.1367 17.2812 17.7773 16.8516C17.6055 16.625 17.4531 16.2148 17.3203 15.6211C17.1953 15.0195 17.1328 14.3711 17.1328 13.6758C17.1328 13.3242 17.1836 13.0547 17.2852 12.8672C17.3945 12.6719 17.543 12.5742 17.7305 12.5742C18.0742 12.5742 18.375 12.9961 18.6328 13.8398C18.7656 14.2773 18.8828 14.6172 18.9844 14.8594C19.2891 15.5781 19.7734 16.1328 20.4375 16.5234C21.1016 16.9141 21.8867 17.1094 22.793 17.1094C23.9648 17.1094 24.9141 16.793 25.6406 16.1602C26.3672 15.5273 26.7305 14.7148 26.7305 13.7227C26.7305 13.4414 26.6914 13.1797 26.6133 12.9375C26.543 12.6875 26.4297 12.4453 26.2734 12.2109C25.7734 11.4922 24.7266 10.8281 23.1328 10.2188C22.8203 10.0938 22.582 10 22.418 9.9375C22.2773 9.88281 22.0703 9.80469 21.7969 9.70312C20.3203 9.14062 19.2773 8.51562 18.668 7.82812C18.3477 7.46875 18.1055 7.06641 17.9414 6.62109C17.7852 6.17578 17.707 5.67969 17.707 5.13281C17.707 3.67188 18.2031 2.49219 19.1953 1.59375C20.1875 0.6875 21.4922 0.234375 23.1094 0.234375C23.5156 0.234375 23.9609 0.277344 24.4453 0.363281C24.9375 0.441406 25.4844 0.558594 26.0859 0.714844ZM35.8359 4.41797V3.43359C35.8359 2.75391 35.7891 2.33594 35.6953 2.17969C35.6094 2.02344 35.3672 1.94531 34.9688 1.94531H33.7031C33.2266 1.94531 32.8594 2.00781 32.6016 2.13281C32.3516 2.25 32.125 2.46875 31.9219 2.78906C31.7812 3.00781 31.6133 3.35156 31.418 3.82031C31.1055 4.58594 30.793 4.96875 30.4805 4.96875C30.3086 4.96875 30.1758 4.88281 30.082 4.71094C29.9961 4.53125 29.9531 4.26562 29.9531 3.91406C29.9531 2.89063 30.1016 2.04688 30.3984 1.38281C30.6953 0.71875 31.0586 0.386719 31.4883 0.386719C31.5273 0.386719 31.6094 0.402344 31.7344 0.433594C32.1719 0.542969 32.5938 0.597656 33 0.597656H40.6172C41.0234 0.597656 41.4453 0.542969 41.8828 0.433594C42.0078 0.402344 42.0898 0.386719 42.1289 0.386719C42.5664 0.386719 42.9336 0.722656 43.2305 1.39453C43.5352 2.05859 43.6875 2.89844 43.6875 3.91406C43.6875 4.25781 43.6406 4.51953 43.5469 4.69922C43.4531 4.87891 43.3164 4.96875 43.1367 4.96875C42.8242 4.96875 42.5195 4.59375 42.2227 3.84375C42.0273 3.35938 41.8594 3.00781 41.7188 2.78906C41.5156 2.46875 41.2852 2.25 41.0273 2.13281C40.7695 2.00781 40.3984 1.94531 39.9141 1.94531H38.6484C38.2578 1.94531 38.0195 2.01562 37.9336 2.15625C37.8477 2.28906 37.8047 2.66016 37.8047 3.26953V4.41797V9.23438C37.8047 11.8516 37.8281 13.6523 37.875 14.6367C37.9297 15.6211 38.0195 16.1914 38.1445 16.3477C38.207 16.4336 38.4609 16.5508 38.9062 16.6992C39.3594 16.8477 39.5859 17.0352 39.5859 17.2617C39.5859 17.5586 39.3711 17.7734 38.9414 17.9062C38.5117 18.0312 37.8047 18.0938 36.8203 18.0938C35.8281 18.0938 35.1133 18.0273 34.6758 17.8945C34.2461 17.7617 34.0312 17.5508 34.0312 17.2617C34.0312 17.0352 34.2539 16.8477 34.6992 16.6992C35.1523 16.5508 35.4141 16.4297 35.4844 16.3359C35.6094 16.1797 35.6992 15.5742 35.7539 14.5195C35.8086 13.4648 35.8359 11.7031 35.8359 9.23438V4.41797Z" fill="black"/>
</svg>
