<svg width="35" height="36" viewBox="0 0 35 36" fill="none" xmlns="http://www.w3.org/2000/svg">
<path d="M9.47913 7.79175C5.83329 7.79175 2.91663 10.7084 2.91663 14.3542V25.2917C2.91663 26.0653 3.22392 26.8072 3.7709 27.3541C4.31788 27.9011 5.05974 28.2084 5.83329 28.2084H29.1666C29.9402 28.2084 30.682 27.9011 31.229 27.3541C31.776 26.8072 32.0833 26.0653 32.0833 25.2917V13.6251C32.0833 10.4167 29.4583 7.79175 26.25 7.79175H9.47913ZM9.47913 7.79175C13.125 7.79175 16.0416 10.7084 16.0416 14.3542V25.2917C16.0416 26.0653 15.7343 26.8072 15.1874 27.3541C14.6404 27.9011 13.8985 28.2084 13.125 28.2084M21.875 13.6251H26.25V16.5417M8.74996 15.0834H10.2083" stroke="#AF7302" stroke-width="2" stroke-linecap="round" stroke-linejoin="round"/>
</svg>
