<svg width="35" height="36" viewBox="0 0 35 36" fill="none" xmlns="http://www.w3.org/2000/svg">
<path d="M17.5 33.6918C15.9105 33.6918 14.3355 33.2251 13.0959 32.3063L6.82504 27.6251C5.16254 26.3855 3.86462 23.7897 3.86462 21.7334V10.8834C3.86462 8.6376 5.51254 6.24593 7.62712 5.45843L14.9042 2.73135C16.348 2.19176 18.623 2.19176 20.0667 2.73135L27.3438 5.45843C29.4584 6.24593 31.1063 8.6376 31.1063 10.8834V21.7188C31.1063 23.7897 29.8084 26.3709 28.1459 27.6105L21.875 32.2918C20.6646 33.2251 19.0896 33.6918 17.5 33.6918ZM15.6771 4.7876L8.40004 7.51468C7.16046 7.98135 6.06671 9.55635 6.06671 10.898V21.7334C6.06671 23.1188 7.04379 25.0584 8.13754 25.8751L14.4084 30.5563C16.0855 31.8105 18.9146 31.8105 20.6063 30.5563L26.8771 25.8751C27.9855 25.0438 28.948 23.1188 28.948 21.7334V10.8834C28.948 9.55635 27.8542 7.98135 26.6146 7.5001L19.3375 4.77301C18.3459 4.42301 16.6542 4.42301 15.6771 4.7876Z" fill="#AF7302"/>
<path d="M15.5458 21.2521C15.2687 21.2521 14.9916 21.15 14.7729 20.9312L12.425 18.5833C12.0021 18.1604 12.0021 17.4604 12.425 17.0375C12.8479 16.6146 13.5479 16.6146 13.9708 17.0375L15.5458 18.6125L21.0437 13.1146C21.4666 12.6916 22.1666 12.6916 22.5896 13.1146C23.0125 13.5375 23.0125 14.2375 22.5896 14.6604L16.3187 20.9312C16.1 21.15 15.8229 21.2521 15.5458 21.2521Z" fill="#AF7302"/>
</svg>
