<svg width="35" height="36" viewBox="0 0 35 36" fill="none" xmlns="http://www.w3.org/2000/svg">
<path d="M17.5 20.9167H18.9583C20.5625 20.9167 21.875 19.6042 21.875 18.0001V3.41675H8.74997C6.56247 3.41675 4.65207 4.62715 3.6604 6.40631" stroke="#AF7302" stroke-width="1.5" stroke-linecap="round" stroke-linejoin="round"/>
<path d="M2.91669 25.2917C2.91669 27.7126 4.87085 29.6667 7.29169 29.6667H8.75002C8.75002 28.0626 10.0625 26.7501 11.6667 26.7501C13.2709 26.7501 14.5834 28.0626 14.5834 29.6667H20.4167C20.4167 28.0626 21.7292 26.7501 23.3334 26.7501C24.9375 26.7501 26.25 28.0626 26.25 29.6667H27.7084C30.1292 29.6667 32.0834 27.7126 32.0834 25.2917V20.9167H27.7084C26.9063 20.9167 26.25 20.2605 26.25 19.4584V15.0834C26.25 14.2813 26.9063 13.6251 27.7084 13.6251H29.5896L27.0959 9.26468C26.5709 8.36051 25.6084 7.79175 24.5584 7.79175H21.875V18.0001C21.875 19.6042 20.5625 20.9167 18.9584 20.9167H17.5" stroke="#AF7302" stroke-width="1.5" stroke-linecap="round" stroke-linejoin="round"/>
<path d="M11.6667 32.5833C13.2775 32.5833 14.5833 31.2775 14.5833 29.6667C14.5833 28.0558 13.2775 26.75 11.6667 26.75C10.0558 26.75 8.75 28.0558 8.75 29.6667C8.75 31.2775 10.0558 32.5833 11.6667 32.5833Z" stroke="#AF7302" stroke-width="1.5" stroke-linecap="round" stroke-linejoin="round"/>
<path d="M23.3334 32.5833C24.9442 32.5833 26.25 31.2775 26.25 29.6667C26.25 28.0558 24.9442 26.75 23.3334 26.75C21.7225 26.75 20.4167 28.0558 20.4167 29.6667C20.4167 31.2775 21.7225 32.5833 23.3334 32.5833Z" stroke="#AF7302" stroke-width="1.5" stroke-linecap="round" stroke-linejoin="round"/>
<path d="M32.0833 18V20.9167H27.7083C26.9062 20.9167 26.25 20.2604 26.25 19.4583V15.0833C26.25 14.2812 26.9062 13.625 27.7083 13.625H29.5896L32.0833 18Z" stroke="#AF7302" stroke-width="1.5" stroke-linecap="round" stroke-linejoin="round"/>
<path d="M2.91669 12.1667H11.6667" stroke="#AF7302" stroke-width="1.5" stroke-linecap="round" stroke-linejoin="round"/>
<path d="M2.91669 16.5417H8.75002" stroke="#AF7302" stroke-width="1.5" stroke-linecap="round" stroke-linejoin="round"/>
<path d="M2.91669 20.9167H5.83335" stroke="#AF7302" stroke-width="1.5" stroke-linecap="round" stroke-linejoin="round"/>
</svg>
