<svg width="20" height="20" viewBox="0 0 20 20" fill="none" xmlns="http://www.w3.org/2000/svg">
<path d="M11.6666 14.9999V4.99992C11.6666 4.55789 11.491 4.13397 11.1785 3.82141C10.8659 3.50885 10.442 3.33325 9.99996 3.33325H3.33329C2.89127 3.33325 2.46734 3.50885 2.15478 3.82141C1.84222 4.13397 1.66663 4.55789 1.66663 4.99992V14.1666C1.66663 14.3876 1.75442 14.5996 1.9107 14.7558C2.06698 14.9121 2.27895 14.9999 2.49996 14.9999H4.16663M4.16663 14.9999C4.16663 15.9204 4.91282 16.6666 5.83329 16.6666C6.75377 16.6666 7.49996 15.9204 7.49996 14.9999M4.16663 14.9999C4.16663 14.0794 4.91282 13.3333 5.83329 13.3333C6.75377 13.3333 7.49996 14.0794 7.49996 14.9999M12.5 14.9999H7.49996M12.5 14.9999C12.5 15.9204 13.2462 16.6666 14.1666 16.6666C15.0871 16.6666 15.8333 15.9204 15.8333 14.9999M12.5 14.9999C12.5 14.0794 13.2462 13.3333 14.1666 13.3333C15.0871 13.3333 15.8333 14.0794 15.8333 14.9999M15.8333 14.9999H17.5C17.721 14.9999 17.9329 14.9121 18.0892 14.7558C18.2455 14.5996 18.3333 14.3876 18.3333 14.1666V11.1249C18.333 10.9358 18.2683 10.7524 18.15 10.6049L15.25 6.97992C15.172 6.88232 15.0731 6.80349 14.9606 6.74925C14.8481 6.69501 14.7249 6.66676 14.6 6.66659H11.6666" stroke="#424242" stroke-width="2" stroke-linecap="round" stroke-linejoin="round"/>
</svg>
